<?xml version="1.0" encoding="UTF-8"?>
<svg id="Layer_2" data-name="Layer 2" xmlns="http://www.w3.org/2000/svg" viewBox="0 0 493.83 673.26">
  <defs>
    <style>
      .cls-1 {
        fill: #ffdd36;
        stroke-width: 0px;
      }
    </style>
  </defs>
  <g id="OBJECTS">
    <path class="cls-1" d="M247.44,620.59c-11.29,11.75-21.18,24.28-33.25,34.13-20.25,16.54-43.82,22.72-69.81,15.64-5.29-1.44-12.3-2.43-11.8-9.67.48-7.02,7.28-6.32,12.58-7.4,19.85-4.06,32.63-16.63,40.3-34.88,5.11-12.16,6.59-24.97,6.38-38.02-.02-1.58-.45-3.58-1.47-4.66-28.94-30.57-59.06-59.95-98.01-77.59-28.62-12.96-57.01,2.26-63.55,32.53-3.17,14.66,6.66,29.68,21.43,32.62,2.9.58,7.09.25,6.28,4.51-.49,2.56-3.09,5.65-5.54,6.76-14.85,6.74-34.37-.77-43.48-16.11-7.97-13.42-8.63-28.24-6.39-42.77,5.41-35.14,21.94-63.86,52.58-83.24,25.3-16.01,52.27-16.11,80.39-8.74,29.48,7.73,53.58,23.88,75.87,44,25.37,22.9,51.68,44.77,82.33,60.54,12.31,6.33,25.12,11.81,39.24,12.01,40.19.59,76.31-41.15,51.45-86.25-12.19-22.12-31.34-36.94-53.62-47.27-21-9.73-42.92-17.49-65.89-26.7,0,20.31-.04,38.59.01,56.87.05,18.23-1.53,36.11-10.74,53.83-4.96-3.88-9.32-7.2-13.58-10.64-14.12-11.43-28.06-23.08-42.4-34.23-3.67-2.85-5.03-5.57-5.03-10.14.15-83.43.09-166.86.19-250.28.01-11.72-1.14-22.82-9.72-31.92-3.77-4-1.82-6.54,2.67-8.74,16.21-7.94,32.27-16.21,49.26-24.79-32.32-13.06-63.35-26.47-96.66-34.02-42.96-9.73-62.81,17.67-68.86,46.48-8.23,39.19,11.52,75.49,51.34,92.89,16.6,7.25,34.75,11.04,52.36,15.82,5.48,1.49,8.22,2.86,8.12,9.48-.44,30.76-.3,61.54-.1,92.31.04,5.31-1.74,7.41-6.79,6.11-30.41-7.83-61.45-13.99-89.53-28.74-36.73-19.3-62.28-48.35-72.2-89.28-7.7-31.78-2.5-62.77,9.85-92.43C48.93,73.09,96.42,28.47,163.58,5.72,193.9-4.55,224.09-.03,253.41,11.65c26.2,10.44,52.23,21.33,78.7,31.02,22.99,8.42,46.91,13.77,71.59,12.45,11.29-.61,22.68-2.87,33.6-5.9,17.87-4.95,29.6-17.01,35.69-34.6,1.47-4.24,2.87-8.89,8.93-8.68,5.71.2,7.4,4.53,9.18,8.73,5.35,12.64,2,24.98-3.08,36.39-24.42,54.84-65.29,89.73-125.2,100.31-28.81,5.09-56.13-1.77-82.79-12.22-5.18-2.03-10.35-4.12-16.1-6.41v126.73c5.85,1.01,12.25,2.8,18.71,3.08,15.7.68,31.5,1.63,47.11.44,6.36-.49,12.84-5.55,18.33-9.75,5.97-4.57,10.67-10.75,16.3-15.82,1.77-1.59,5.59-3.26,6.96-2.42,2.36,1.44,4.72,4.7,5,7.41.67,6.64.25,13.41.09,20.12-.31,13.15,6.1,22.06,17.33,28.05,10.65,5.68,21.75,10.67,31.87,17.19,33,21.25,55.49,50.35,63.17,89.47,7.18,36.56-1.69,69.79-22.91,99.88-18.42,26.11-42.58,46.53-67.12,66.55-23.82,19.44-47.99,38.6-65.97,64.02-4.84,6.84-9,14.22-12.86,21.67-1.89,3.66-3.4,4.52-7.42,3.14-22.36-7.69-43.04-18.75-63.25-30.81-1.09-.65-2.18-1.3-1.84-1.1ZM422.57,468.54c12.94-27.87,11.07-53.59-4.4-78.17-10.87-17.28-26.9-28.95-44.62-38.55-23.47-12.71-49.22-19.15-74.32-27.38-11.76-3.85-23.48-7.85-35.58-11.9v37.32c2,.69,3.98,1.35,5.95,2.06,22.66,8.15,45.59,15.62,67.89,24.66,24.66,10.01,46.87,24,63.43,45.62,10.27,13.4,16.46,28.68,21.65,46.35Z"/>
  </g>
</svg>